<svg version="1.1" id="Layer_1" xmlns="http://www.w3.org/2000/svg" xmlns:xlink="http://www.w3.org/1999/xlink" x="0px" y="0px"
	 width="100%" viewBox="0 0 254 237" enable-background="new 0 0 254 237" xml:space="preserve">
<path fill="#000000" opacity="1.000000" stroke="none" 
	d="
M175.000000,238.000000 
	C116.666672,238.000000 58.833340,238.000000 1.000008,238.000000 
	C1.000005,159.000015 1.000005,80.000015 1.000003,1.000018 
	C85.666649,1.000012 170.333298,1.000012 254.999969,1.000006 
	C254.999969,79.999977 254.999969,158.999954 254.999985,237.999969 
	C228.500000,238.000000 202.000000,238.000000 175.000000,238.000000 
M53.535973,168.979706 
	C59.791473,175.874283 65.181648,183.907379 72.468102,189.445541 
	C92.647369,204.782990 115.675430,211.017288 140.873520,205.898178 
	C172.879349,199.396027 194.639191,180.464203 205.969955,149.845520 
	C210.345779,138.020844 211.606628,125.800247 210.104660,113.109985 
	C208.755737,101.712883 205.658707,90.981308 200.292816,81.000771 
	C194.120544,69.520348 185.181351,60.185734 174.787430,52.478653 
	C155.683136,38.312862 133.956619,33.232662 110.730011,37.357960 
	C91.199554,40.826775 74.525581,50.174149 61.057056,65.313553 
	C46.669643,81.485840 39.484093,100.292305 39.179146,121.576698 
	C38.937477,138.444534 43.515430,154.269989 53.535973,168.979706 
z"/>
<path fill="#93AF7B" opacity="1.000000" stroke="none" 
	d="
M53.283821,168.712280 
	C43.515430,154.269989 38.937477,138.444534 39.179146,121.576698 
	C39.484093,100.292305 46.669643,81.485840 61.057056,65.313553 
	C74.525581,50.174149 91.199554,40.826775 110.730011,37.357960 
	C133.956619,33.232662 155.683136,38.312862 174.787430,52.478653 
	C185.181351,60.185734 194.120544,69.520348 200.292816,81.000771 
	C205.658707,90.981308 208.755737,101.712883 210.104660,113.109985 
	C211.606628,125.800247 210.345779,138.020844 205.969955,149.845520 
	C194.639191,180.464203 172.879349,199.396027 140.873520,205.898178 
	C115.675430,211.017288 92.647369,204.782990 72.468102,189.445541 
	C65.181648,183.907379 59.791473,175.874283 53.283821,168.712280 
M124.759361,134.544250 
	C124.206337,135.106430 123.653320,135.668610 122.772499,136.603638 
	C122.313850,136.774277 121.855209,136.944931 120.894196,137.328018 
	C120.600082,137.538055 120.305969,137.748093 119.417816,138.373886 
	C115.819130,139.601715 112.252831,140.936737 108.615257,142.035873 
	C100.030518,144.629852 92.745415,149.026886 86.793510,156.787521 
	C89.408012,157.613663 91.261780,158.199432 93.068169,159.454468 
	C92.999931,160.120193 92.931694,160.785919 91.982803,161.608917 
	C88.970245,161.684464 85.957695,161.760010 82.439186,161.765488 
	C82.048676,162.659103 81.658165,163.552734 81.040588,165.110291 
	C79.802010,168.446777 78.563431,171.783249 77.338280,175.083542 
	C84.601913,177.937500 92.216263,177.747421 102.598419,174.798889 
	C132.648438,166.264664 149.214447,145.220261 150.234833,114.541267 
	C150.647110,102.145691 154.554886,90.879509 163.099487,81.756973 
	C168.028122,76.494980 173.796860,72.019875 179.092041,67.276085 
	C178.769440,67.276085 178.115921,67.189728 177.491730,67.288605 
	C157.315338,70.484589 137.630920,75.392372 119.555481,85.244942 
	C93.883324,99.238319 75.963097,119.506653 69.783783,148.766739 
	C68.534302,154.683258 68.316704,160.817688 67.623383,166.851669 
	C74.777130,153.592880 83.456886,142.848907 97.522942,137.256485 
	C98.480659,136.875717 99.147354,135.762985 100.746483,134.987061 
	C101.807266,134.994492 102.868057,135.001923 104.802193,135.002365 
	C107.440201,134.736404 110.074936,134.430389 112.717010,134.214066 
	C116.504730,133.903915 119.659576,133.105713 119.134071,128.122452 
	C119.033379,127.167610 120.035835,126.096428 120.235939,125.683861 
	C122.185608,127.118866 123.657303,128.202072 125.110237,130.330063 
	C125.293198,131.708542 125.476158,133.087006 125.570641,134.623032 
	C125.570641,134.623032 125.399063,134.566360 124.759361,134.544250 
z"/>
<path fill="#E9EDED" opacity="1.000000" stroke="none" 
	d="
M125.129013,129.285278 
	C123.657303,128.202072 122.185608,127.118866 120.235939,125.683861 
	C120.035835,126.096428 119.033379,127.167610 119.134071,128.122452 
	C119.659576,133.105713 116.504730,133.903915 112.717010,134.214066 
	C110.074936,134.430389 107.440201,134.736404 104.344162,134.546783 
	C104.454048,127.388626 105.021950,120.686073 105.589851,113.983513 
	C101.605499,120.498352 99.755753,127.486572 99.949394,134.990677 
	C99.147354,135.762985 98.480659,136.875717 97.522942,137.256485 
	C83.456886,142.848907 74.777130,153.592880 67.623383,166.851669 
	C68.316704,160.817688 68.534302,154.683258 69.783783,148.766739 
	C75.963097,119.506653 93.883324,99.238319 119.555481,85.244942 
	C137.630920,75.392372 157.315338,70.484589 177.491730,67.288605 
	C178.115921,67.189728 178.769440,67.276085 179.092041,67.276085 
	C173.796860,72.019875 168.028122,76.494980 163.099487,81.756973 
	C154.554886,90.879509 150.647110,102.145691 150.234833,114.541267 
	C149.214447,145.220261 132.648438,166.264664 102.598419,174.798889 
	C92.216263,177.747421 84.601913,177.937500 77.338280,175.083542 
	C78.563431,171.783249 79.802010,168.446777 81.397720,164.575775 
	C82.151619,163.306030 82.548370,162.570786 82.945129,161.835541 
	C85.957695,161.760010 88.970245,161.684464 92.854553,161.625671 
	C97.794548,161.282181 101.862801,160.921936 105.931053,160.561691 
	C105.884270,159.969528 105.837479,159.377365 105.790688,158.785202 
	C101.565643,158.785202 97.340591,158.785202 93.115540,158.785202 
	C91.261780,158.199432 89.408012,157.613663 86.793510,156.787521 
	C92.745415,149.026886 100.030518,144.629852 108.615257,142.035873 
	C112.252831,140.936737 115.819130,139.601715 119.989624,138.110901 
	C120.839813,137.603806 121.118195,137.359695 121.396568,137.115585 
	C121.855209,136.944931 122.313850,136.774277 123.224503,136.346375 
	C124.250702,135.581528 124.824890,135.073944 125.399063,134.566376 
	C125.399063,134.566360 125.570641,134.623032 125.896225,134.410034 
	C131.974045,129.231110 136.053757,123.272629 137.309525,115.656837 
	C133.249359,120.199654 129.189178,124.742470 125.129013,129.285278 
z"/>
<path fill="#9FB18D" opacity="1.000000" stroke="none" 
	d="
M125.119629,129.807678 
	C129.189178,124.742470 133.249359,120.199654 137.309525,115.656837 
	C136.053757,123.272629 131.974045,129.231110 125.940468,134.331268 
	C125.476158,133.087006 125.293198,131.708542 125.119629,129.807678 
z"/>
<path fill="#A0B391" opacity="1.000000" stroke="none" 
	d="
M100.347939,134.988861 
	C99.755753,127.486572 101.605499,120.498352 105.589851,113.983513 
	C105.021950,120.686073 104.454048,127.388626 103.907486,134.550262 
	C102.868057,135.001923 101.807266,134.994492 100.347939,134.988861 
z"/>
<path fill="#A4B596" opacity="1.000000" stroke="none" 
	d="
M93.091858,159.119843 
	C97.340591,158.785202 101.565643,158.785202 105.790688,158.785202 
	C105.837479,159.377365 105.884270,159.969528 105.931053,160.561691 
	C101.862801,160.921936 97.794548,161.282181 93.294876,161.547028 
	C92.931694,160.785919 92.999931,160.120193 93.091858,159.119843 
z"/>
<path fill="#A4B596" opacity="1.000000" stroke="none" 
	d="
M82.692154,161.800507 
	C82.548370,162.570786 82.151619,163.306030 81.511261,164.243805 
	C81.658165,163.552734 82.048676,162.659103 82.692154,161.800507 
z"/>
<path fill="#9FB18D" opacity="1.000000" stroke="none" 
	d="
M125.079216,134.555313 
	C124.824890,135.073944 124.250702,135.581528 123.388412,136.159943 
	C123.653320,135.668610 124.206337,135.106430 125.079216,134.555313 
z"/>
<path fill="#9FB18D" opacity="1.000000" stroke="none" 
	d="
M121.145386,137.221802 
	C121.118195,137.359695 120.839813,137.603806 120.286652,137.903015 
	C120.305969,137.748093 120.600082,137.538055 121.145386,137.221802 
z"/>
</svg>