<?xml version="1.0" standalone="no"?>
<!DOCTYPE svg PUBLIC "-//W3C//DTD SVG 20010904//EN"
 "http://www.w3.org/TR/2001/REC-SVG-20010904/DTD/svg10.dtd">
<svg version="1.0" xmlns="http://www.w3.org/2000/svg"
 width="160.000000pt" height="160.000000pt" viewBox="0 0 160.000000 160.000000"
 preserveAspectRatio="xMidYMid meet">
<metadata>
Created by potrace 1.10, written by Peter Selinger 2001-2011
</metadata>
<g transform="translate(0.000000,160.000000) scale(0.100000,-0.100000)"
fill="#000000" stroke="none">
<path d="M595 1570 c-252 -66 -462 -260 -546 -503 -31 -91 -52 -228 -25 -172
7 17 23 65 35 108 32 116 69 189 143 280 100 123 233 212 384 256 39 12 77 21
85 21 8 1 28 7 44 15 l30 13 -40 1 c-22 0 -71 -8 -110 -19z"/>
<path d="M885 1576 c17 -9 37 -15 46 -16 50 -1 280 -93 299 -119 3 -4 20 -17
38 -30 17 -12 32 -26 32 -30 0 -5 -19 -11 -42 -15 -139 -22 -374 -94 -483
-148 -337 -169 -544 -445 -574 -763 -6 -63 -5 -96 2 -110 10 -16 13 -4 18 70
30 402 317 721 771 859 122 37 300 76 344 76 24 0 20 -5 -32 -36 -74 -44 -124
-93 -175 -168 -55 -83 -79 -168 -86 -306 -7 -173 -35 -248 -130 -350 -99 -107
-221 -183 -354 -220 -71 -19 -180 -26 -227 -14 -26 7 -24 16 12 98 l22 49 104
2 c70 1 123 8 158 19 67 22 62 30 -9 15 -57 -12 -196 -6 -211 9 -12 12 73 87
136 119 27 14 73 31 103 39 147 38 237 128 292 291 32 95 25 107 -13 22 -38
-88 -58 -118 -115 -173 l-40 -39 -7 28 c-4 15 -4 62 -1 104 4 49 2 70 -4 59
-12 -21 -32 -166 -26 -190 3 -10 4 -18 4 -18 -1 0 -39 -6 -84 -14 l-83 -13 0
22 c0 47 33 193 57 253 29 74 26 91 -6 28 -38 -76 -72 -186 -78 -251 l-6 -62
-56 -24 c-78 -32 -181 -135 -222 -224 -17 -36 -30 -68 -27 -70 8 -8 24 12 48
60 37 73 129 166 202 205 35 18 65 37 68 41 3 5 26 5 50 0 25 -5 36 -9 25 -10
-64 -4 -235 -135 -235 -179 0 -10 -11 -24 -23 -31 -25 -13 -60 -75 -71 -127
-5 -24 -2 -34 15 -50 29 -26 179 -26 259 0 225 73 411 232 472 404 14 39 23
97 28 187 8 137 23 198 68 275 35 61 113 142 175 182 l50 32 39 -44 c68 -79
124 -197 154 -326 21 -92 39 -109 30 -29 -16 147 -104 321 -222 439 -121 121
-300 210 -445 221 -62 5 -63 5 -34 -9z"/>
<path d="M15 675 c31 -316 341 -626 662 -661 80 -9 58 7 -47 35 -107 27 -238
89 -304 144 -63 52 -62 51 -112 112 -90 110 -137 203 -170 335 -23 93 -37 109
-29 35z"/>
<path d="M1572 707 c-7 -16 -12 -33 -12 -39 0 -6 -9 -43 -21 -82 -80 -271
-285 -464 -569 -537 -105 -28 -127 -44 -47 -35 308 34 595 306 657 622 15 74
10 115 -8 71z"/>
</g>
</svg>
